<svg xmlns="http://www.w3.org/2000/svg" width="20" height="18.94" viewBox="0 0 20 18.94">
  <metadata><?xpacket begin="﻿" id="W5M0MpCehiHzreSzNTczkc9d"?>
<x:xmpmeta xmlns:x="adobe:ns:meta/" x:xmptk="Adobe XMP Core 5.6-c138 79.159824, 2016/09/14-01:09:01        ">
   <rdf:RDF xmlns:rdf="http://www.w3.org/1999/02/22-rdf-syntax-ns#">
      <rdf:Description rdf:about=""/>
   </rdf:RDF>
</x:xmpmeta>
                                                                                                    
                                                                                                    
                                                                                                    
                                                                                                    
                                                                                                    
                                                                                                    
                                                                                                    
                                                                                                    
                                                                                                    
                                                                                                    
                                                                                                    
                                                                                                    
                                                                                                    
                                                                                                    
                                                                                                    
                                                                                                    
                                                                                                    
                                                                                                    
                                                                                                    
                                                                                                    
                           
<?xpacket end="w"?></metadata>
<defs>
    <style>
      .cls-1 {
        fill: #fff;
        fill-rule: evenodd;
        opacity: 0.9;
      }
    </style>
  </defs>
  <path id="dribble" class="cls-1" d="M1454.09,3374a9.485,9.485,0,1,0,10.01,9.47A9.748,9.748,0,0,0,1454.09,3374Zm6.13,4.91a7.136,7.136,0,0,1,1.67,4.22,16.057,16.057,0,0,0-3.19-.34h-0.01a13.5,13.5,0,0,0-2.26.19c-0.17-.4-0.35-0.79-0.52-1.15A12.169,12.169,0,0,0,1460.22,3378.91Zm-6.13-2.83a7.994,7.994,0,0,1,4.87,1.63,10.05,10.05,0,0,1-3.83,2.59,26.577,26.577,0,0,0-2.69-4.04A8.176,8.176,0,0,1,1454.09,3376.08Zm-3.44.77a23.08,23.08,0,0,1,2.78,4.02,23.477,23.477,0,0,1-6.16.82h-0.12c-0.24,0-.45,0-0.63-0.01A7.545,7.545,0,0,1,1450.65,3376.85Zm-4.36,6.62a0.34,0.34,0,0,1,.01-0.1c0.22,0.01.5,0.01,0.85,0.01h0a25.766,25.766,0,0,0,7.08-.96c0.15,0.31.3,0.64,0.45,0.98a12.433,12.433,0,0,0-4.39,2.45,12.631,12.631,0,0,0-2.15,2.38A7.134,7.134,0,0,1,1446.29,3383.47Zm7.8,7.39a8.054,8.054,0,0,1-4.63-1.45,10.909,10.909,0,0,1,1.81-2.11,10.783,10.783,0,0,1,4.05-2.33,33.4,33.4,0,0,1,1.54,5.41A8.141,8.141,0,0,1,1454.09,3390.86Zm4.42-1.31a34.984,34.984,0,0,0-1.44-4.96,11.711,11.711,0,0,1,1.6-.11h0.02a14.6,14.6,0,0,1,3.07.35A7.388,7.388,0,0,1,1458.51,3389.55Z" transform="translate(-1444.09 -3374)"/>
</svg>
