<svg xmlns="http://www.w3.org/2000/svg" width="10.9" height="18.94" viewBox="0 0 10.9 18.94">
  <metadata><?xpacket begin="﻿" id="W5M0MpCehiHzreSzNTczkc9d"?>
<x:xmpmeta xmlns:x="adobe:ns:meta/" x:xmptk="Adobe XMP Core 5.6-c138 79.159824, 2016/09/14-01:09:01        ">
   <rdf:RDF xmlns:rdf="http://www.w3.org/1999/02/22-rdf-syntax-ns#">
      <rdf:Description rdf:about=""/>
   </rdf:RDF>
</x:xmpmeta>
                                                                                                    
                                                                                                    
                                                                                                    
                                                                                                    
                                                                                                    
                                                                                                    
                                                                                                    
                                                                                                    
                                                                                                    
                                                                                                    
                                                                                                    
                                                                                                    
                                                                                                    
                                                                                                    
                                                                                                    
                                                                                                    
                                                                                                    
                                                                                                    
                                                                                                    
                                                                                                    
                           
<?xpacket end="w"?></metadata>
<defs>
    <style>
      .cls-1 {
        fill: #fff;
        fill-rule: evenodd;
        opacity: 0.9;
      }
    </style>
  </defs>
  <path id="facebook" class="cls-1" d="M1379.41,3374.01l-2.61-.01c-2.94,0-4.84,1.83-4.84,4.66v2.15h-2.63a0.411,0.411,0,0,0-.42.39v3.11a0.4,0.4,0,0,0,.42.39h2.63v7.86a0.394,0.394,0,0,0,.41.38h3.43a0.394,0.394,0,0,0,.41-0.38v-7.86h3.08a0.4,0.4,0,0,0,.41-0.39v-3.11a0.357,0.357,0,0,0-.12-0.27,0.385,0.385,0,0,0-.29-0.12h-3.08v-1.82c0-.87.23-1.32,1.44-1.32h1.76a0.4,0.4,0,0,0,.42-0.39v-2.89A0.4,0.4,0,0,0,1379.41,3374.01Z" transform="translate(-1368.91 -3374)"/>
</svg>
