<svg xmlns="http://www.w3.org/2000/svg" width="20" height="18.94" viewBox="0 0 20 18.94">
  <metadata><?xpacket begin="﻿" id="W5M0MpCehiHzreSzNTczkc9d"?>
<x:xmpmeta xmlns:x="adobe:ns:meta/" x:xmptk="Adobe XMP Core 5.6-c138 79.159824, 2016/09/14-01:09:01        ">
   <rdf:RDF xmlns:rdf="http://www.w3.org/1999/02/22-rdf-syntax-ns#">
      <rdf:Description rdf:about=""/>
   </rdf:RDF>
</x:xmpmeta>
                                                                                                    
                                                                                                    
                                                                                                    
                                                                                                    
                                                                                                    
                                                                                                    
                                                                                                    
                                                                                                    
                                                                                                    
                                                                                                    
                                                                                                    
                                                                                                    
                                                                                                    
                                                                                                    
                                                                                                    
                                                                                                    
                                                                                                    
                                                                                                    
                                                                                                    
                                                                                                    
                           
<?xpacket end="w"?></metadata>
<defs>
    <style>
      .cls-1 {
        fill: #fff;
        fill-rule: evenodd;
        opacity: 0.9;
      }
    </style>
  </defs>
  <path id="Forma_1" data-name="Forma 1" class="cls-1" d="M1498.45,3374h-8.96a5.385,5.385,0,0,0-5.52,5.23v8.49a5.377,5.377,0,0,0,5.52,5.22h8.96a5.384,5.384,0,0,0,5.52-5.22v-8.49A5.392,5.392,0,0,0,1498.45,3374Zm3.74,13.72a3.651,3.651,0,0,1-3.74,3.54h-8.96a3.654,3.654,0,0,1-3.75-3.54v-8.49a3.655,3.655,0,0,1,3.75-3.55h8.96a3.653,3.653,0,0,1,3.74,3.55v8.49h0Zm-8.22-9.13a4.887,4.887,0,1,0,5.15,4.88A5.035,5.035,0,0,0,1493.97,3378.59Zm0,8.08a3.2,3.2,0,1,1,3.38-3.2A3.29,3.29,0,0,1,1493.97,3386.67Zm5.37-9.5a1.345,1.345,0,0,0-.92.36,1.186,1.186,0,0,0,0,1.74,1.356,1.356,0,0,0,1.84,0,1.186,1.186,0,0,0,0-1.74A1.345,1.345,0,0,0,1499.34,3377.17Z" transform="translate(-1483.97 -3374)"/>
</svg>
