<svg xmlns="http://www.w3.org/2000/svg" width="20.06" height="18.87" viewBox="0 0 20.06 18.87">
  <metadata><?xpacket begin="﻿" id="W5M0MpCehiHzreSzNTczkc9d"?>
<x:xmpmeta xmlns:x="adobe:ns:meta/" x:xmptk="Adobe XMP Core 5.6-c138 79.159824, 2016/09/14-01:09:01        ">
   <rdf:RDF xmlns:rdf="http://www.w3.org/1999/02/22-rdf-syntax-ns#">
      <rdf:Description rdf:about=""/>
   </rdf:RDF>
</x:xmpmeta>
                                                                                                    
                                                                                                    
                                                                                                    
                                                                                                    
                                                                                                    
                                                                                                    
                                                                                                    
                                                                                                    
                                                                                                    
                                                                                                    
                                                                                                    
                                                                                                    
                                                                                                    
                                                                                                    
                                                                                                    
                                                                                                    
                                                                                                    
                                                                                                    
                                                                                                    
                                                                                                    
                           
<?xpacket end="w"?></metadata>
<defs>
    <style>
      .cls-1 {
        fill: #fff;
        fill-rule: evenodd;
        opacity: 0.9;
      }
    </style>
  </defs>
  <path id="Forma_1" data-name="Forma 1" class="cls-1" d="M1524.26,3380.25h4.31v12.74h-4.31v-12.74Zm18.45,1.17a4.637,4.637,0,0,0-3.59-1.46,4.93,4.93,0,0,0-1.49.2,3.375,3.375,0,0,0-1.14.56,5.743,5.743,0,0,0-.74.66,6.875,6.875,0,0,0-.51.69v-1.82h-4.3l0.02,0.62c0.01,0.41.01,1.68,0.01,3.8s-0.01,4.9-.03,8.32h4.3v-7.11a2.974,2.974,0,0,1,.15-1.04,2.7,2.7,0,0,1,.82-1.1,2.191,2.191,0,0,1,1.38-.44,1.887,1.887,0,0,1,1.66.76,3.714,3.714,0,0,1,.52,2.12v6.81h4.3v-7.3A6.017,6.017,0,0,0,1542.71,3381.42Zm-16.27-7.3a2.465,2.465,0,0,0-1.76.63,2.035,2.035,0,0,0-.67,1.57,2.068,2.068,0,0,0,.65,1.57,2.383,2.383,0,0,0,1.72.63h0.03a2.49,2.49,0,0,0,1.77-.63,2.008,2.008,0,0,0,.66-1.57,2.106,2.106,0,0,0-.67-1.57A2.375,2.375,0,0,0,1526.44,3374.12Z" transform="translate(-1524 -3374.13)"/>
</svg>
