<svg xmlns="http://www.w3.org/2000/svg" width="24.71" height="18.94" viewBox="0 0 24.71 18.94">
  <metadata><?xpacket begin="﻿" id="W5M0MpCehiHzreSzNTczkc9d"?>
<x:xmpmeta xmlns:x="adobe:ns:meta/" x:xmptk="Adobe XMP Core 5.6-c138 79.159824, 2016/09/14-01:09:01        ">
   <rdf:RDF xmlns:rdf="http://www.w3.org/1999/02/22-rdf-syntax-ns#">
      <rdf:Description rdf:about=""/>
   </rdf:RDF>
</x:xmpmeta>
                                                                                                    
                                                                                                    
                                                                                                    
                                                                                                    
                                                                                                    
                                                                                                    
                                                                                                    
                                                                                                    
                                                                                                    
                                                                                                    
                                                                                                    
                                                                                                    
                                                                                                    
                                                                                                    
                                                                                                    
                                                                                                    
                                                                                                    
                                                                                                    
                                                                                                    
                                                                                                    
                           
<?xpacket end="w"?></metadata>
<defs>
    <style>
      .cls-1 {
        fill: #00a3e3;
        fill-rule: evenodd;
      }
    </style>
  </defs>
  <path id="twitter" class="cls-1" d="M1425.66,3374.35a10.413,10.413,0,0,1-3.22,1.16,5.212,5.212,0,0,0-3.7-1.51,4.934,4.934,0,0,0-5.08,4.78,4.786,4.786,0,0,0,.13,1.09,14.712,14.712,0,0,1-10.45-4.99,4.486,4.486,0,0,0-.69,2.4,4.709,4.709,0,0,0,2.26,3.98,5.166,5.166,0,0,1-2.3-.6v0.06a4.866,4.866,0,0,0,4.07,4.69,5.407,5.407,0,0,1-1.34.17,4.937,4.937,0,0,1-.95-0.09,5.042,5.042,0,0,0,4.73,3.33,10.568,10.568,0,0,1-6.3,2.04,12.1,12.1,0,0,1-1.21-.06,15.071,15.071,0,0,0,7.78,2.14c9.33,0,14.44-7.28,14.44-13.6l-0.02-.62a9.785,9.785,0,0,0,2.53-2.48,10.748,10.748,0,0,1-2.91.76A4.877,4.877,0,0,0,1425.66,3374.35Z" transform="translate(-1401.63 -3374)"/>
</svg>
